<?xml version="1.0" standalone="no"?>
<!DOCTYPE svg PUBLIC "-//W3C//DTD SVG 20010904//EN"
 "http://www.w3.org/TR/2001/REC-SVG-20010904/DTD/svg10.dtd">
<svg version="1.0" xmlns="http://www.w3.org/2000/svg"
 width="748.000000pt" height="750.000000pt" viewBox="0 0 748.000000 750.000000"
 preserveAspectRatio="xMidYMid meet">

<g transform="translate(0.000000,750.000000) scale(0.100000,-0.100000)"
fill="#000000" stroke="none">
<path d="M3860 5926 c-86 -19 -129 -35 -220 -82 -154 -79 -281 -209 -360 -369
-21 -44 -66 -164 -100 -266 -33 -103 -83 -233 -111 -290 -28 -57 -66 -138 -84
-180 -17 -42 -46 -96 -63 -120 -89 -130 -206 -374 -242 -507 -11 -40 -38 -108
-60 -151 -21 -43 -48 -106 -60 -140 -19 -56 -19 -65 -6 -91 13 -28 13 -32 -16
-67 -49 -62 -99 -143 -139 -228 -54 -114 -55 -128 -4 -109 16 6 18 5 9 -7 -13
-16 -238 -436 -246 -460 -3 -8 0 -26 7 -39 10 -18 10 -30 3 -44 -8 -15 -7 -22
6 -31 22 -16 21 -17 -24 -70 -41 -47 -52 -88 -25 -98 22 -9 104 19 158 53 57
36 71 38 62 8 -4 -13 -94 -201 -200 -418 -105 -217 -200 -416 -210 -442 -23
-63 -15 -82 31 -75 45 8 109 49 244 157 274 220 275 220 314 297 29 56 72 109
205 250 93 98 186 192 207 209 l39 31 103 -5 102 -5 0 -61 c0 -80 22 -116 93
-150 67 -33 77 -44 216 -231 61 -82 139 -186 173 -229 70 -92 70 -94 -15 -143
-54 -32 -127 -105 -127 -128 0 -8 19 -8 73 1 185 31 887 61 1115 48 112 -7
152 -6 152 2 0 20 -75 80 -136 109 -43 21 -78 29 -129 31 -38 2 -135 11 -215
19 -80 8 -213 19 -297 24 -83 5 -158 13 -166 17 -21 12 -77 84 -192 249 -54
77 -122 171 -150 209 l-52 68 43 67 c80 123 66 110 326 293 300 212 526 412
603 532 19 30 50 67 68 82 43 36 60 69 91 178 37 128 55 241 68 439 13 190 10
183 60 162 15 -6 16 -3 7 32 -6 21 -30 97 -55 169 -61 179 -85 308 -91 492 -7
189 4 255 45 270 15 5 107 26 204 47 156 33 186 37 257 31 50 -5 81 -4 81 2 0
6 -27 35 -61 66 -93 87 -339 196 -439 196 -27 0 -60 46 -112 154 -26 56 -43
67 -51 35 -3 -12 -10 -18 -17 -14 -8 5 -8 10 0 20 14 17 -37 51 -177 120 -171
85 -361 114 -513 81z m338 -58 c78 -24 259 -113 319 -156 34 -25 80 -85 136
-179 5 -8 -18 -24 -67 -47 -42 -20 -79 -36 -84 -36 -5 0 -17 -10 -28 -21 -19
-22 -19 -22 4 -10 12 6 22 9 22 6 0 -3 -17 -13 -37 -21 -34 -15 -38 -15 -50 2
-7 10 -18 35 -23 55 -14 51 -43 85 -104 119 -77 44 -150 42 -246 -7 -70 -36
-72 -37 -129 -25 -96 20 -140 16 -217 -22 -84 -42 -94 -52 -134 -138 -86 -184
-29 -318 180 -419 138 -67 141 -75 28 -82 -126 -8 -202 -32 -397 -127 -167
-80 -206 -93 -195 -65 10 24 -13 17 -42 -12 -29 -29 -15 -6 21 36 l20 24 -67
-7 c-45 -4 -68 -3 -68 4 0 6 27 64 60 130 33 66 89 206 125 310 90 264 143
365 250 479 108 115 282 204 450 230 81 13 192 4 273 -21z m392 -188 c0 -5 -5
-10 -11 -10 -5 0 -7 5 -4 10 3 6 8 10 11 10 2 0 4 -4 4 -10z m-360 -135 c17
-20 5 -45 -20 -45 -23 0 -35 22 -26 45 7 19 30 19 46 0z m-62 -16 c4 -20 -25
-52 -42 -46 -16 5 -20 48 -4 58 19 13 42 6 46 -12z m-113 -19 c-3 -5 -1 -27 4
-48 11 -38 47 -80 89 -102 57 -29 163 26 177 92 9 39 25 19 25 -33 0 -68 -74
-119 -172 -119 -89 0 -158 66 -158 149 0 32 18 71 33 71 4 0 5 -4 2 -10z
m-125 -19 c19 -9 32 -30 49 -79 16 -47 36 -81 67 -115 l45 -47 71 0 71 0 -23
-25 c-13 -14 -19 -25 -13 -25 6 0 16 7 23 15 8 9 20 13 29 9 9 -3 25 -7 36 -9
11 -1 24 -3 29 -4 5 0 6 -23 3 -51 -3 -27 -3 -50 0 -50 4 0 22 15 41 33 l34
32 -16 -33 c-13 -25 -14 -37 -5 -53 15 -29 49 -221 49 -279 0 -57 7 -66 30
-37 15 18 20 19 24 7 24 -72 35 -114 41 -170 l8 -65 15 44 c20 59 31 38 39
-74 5 -67 2 -94 -12 -131 -13 -35 -18 -80 -19 -197 -2 -121 -6 -159 -19 -184
-17 -32 -17 -33 3 -33 16 0 20 -5 16 -17 -3 -10 -8 -44 -10 -76 -3 -46 -1 -56
9 -47 19 16 3 -48 -43 -173 -80 -217 -206 -388 -338 -459 -45 -24 -58 -23 -40
5 7 12 16 37 20 56 7 38 12 40 -75 -31 -26 -21 -49 -38 -52 -38 -12 0 8 47 31
72 36 39 21 45 -21 9 -19 -17 -54 -38 -78 -46 -39 -13 -42 -13 -25 0 11 8 23
15 27 15 4 0 11 9 14 21 4 12 15 31 25 43 11 11 30 35 44 51 15 17 21 32 15
34 -6 2 -47 -16 -91 -39 -82 -43 -110 -50 -57 -15 16 11 29 25 29 32 0 6 19
22 43 36 49 30 150 117 143 124 -3 3 -18 -4 -34 -16 -16 -11 -105 -56 -198
-99 -213 -99 -226 -105 -244 -107 -8 -1 -43 -10 -78 -20 -59 -17 -95 -14 -61
5 8 5 47 35 86 67 39 32 126 103 193 157 67 54 142 124 166 155 56 71 110 182
119 245 6 36 22 68 61 122 80 113 115 221 77 242 -15 9 -15 15 -5 50 55 184
17 417 -86 519 -36 36 -39 37 -113 18 -20 -5 -26 -1 -35 23 -15 40 -63 72
-182 122 -56 23 -105 47 -108 52 -3 5 -16 13 -29 18 -32 12 -75 88 -81 146
-14 114 59 228 172 270 45 16 154 13 194 -5z m926 -36 c84 -25 218 -85 239
-107 7 -8 4 -9 -10 -3 -92 34 -293 95 -315 95 -15 0 -41 -7 -56 -15 -16 -8
-38 -15 -49 -15 -11 0 -33 -11 -49 -25 -29 -25 -76 -34 -76 -15 0 5 21 24 47
42 111 78 134 82 269 43z m-41 -156 c26 -10 -104 -11 -211 -2 -53 4 -71 9 -54
13 32 8 238 0 265 -11z m-224 -59 c21 -12 23 -18 9 -40 -7 -12 -12 -11 -29 9
-29 33 -18 51 20 31z m-498 -439 c24 -59 47 -155 47 -195 l0 -36 -35 38 -34
37 -1 -34 c0 -19 -3 -32 -6 -28 -4 3 -13 0 -21 -8 -18 -18 -33 -19 -34 -2 0 6
-7 -19 -15 -56 -31 -142 -97 -243 -211 -323 -37 -26 -78 -58 -91 -71 -23 -24
-76 -32 -87 -13 -4 6 8 10 27 10 19 0 43 7 54 15 17 13 15 14 -34 15 -29 0
-62 5 -73 10 -18 10 -19 7 -20 -77 0 -48 -5 -97 -10 -108 -7 -14 -8 -4 -4 35
3 30 5 85 5 122 l0 68 26 -10 c36 -14 109 -12 147 4 56 23 137 95 177 157 74
115 104 320 60 416 l-19 43 27 6 c15 3 38 10 52 14 46 16 57 11 73 -29z m-178
-51 c3 -5 -26 -10 -72 -12 -67 -3 -74 -5 -53 -14 21 -10 12 -12 -69 -19 l-95
-7 -63 -63 c-35 -35 -63 -68 -63 -73 0 -6 -10 -14 -22 -18 -34 -10 -109 -59
-102 -66 11 -11 -37 -20 -74 -14 -27 5 -33 4 -22 -3 8 -6 26 -11 39 -11 l24 0
-23 -25 c-13 -14 -29 -25 -37 -25 -7 0 -19 -15 -27 -32 l-14 -33 -1 52 c-1 28
8 79 18 112 10 34 16 61 13 61 -11 0 -114 -116 -149 -168 -43 -63 -53 -71 -53
-38 0 25 72 199 92 223 36 44 260 138 398 167 75 16 346 21 355 6z m-858 -82
c-14 -18 -47 -76 -74 -128 -49 -94 -105 -189 -191 -325 -32 -50 -42 -62 -37
-40 17 73 115 272 203 410 55 87 80 115 104 115 17 0 17 -3 -5 -32z m888 -85
c-8 -52 -25 -66 -26 -21 0 18 -3 27 -6 21 -2 -7 -9 -13 -14 -13 -6 0 -8 4 -4
9 3 5 1 12 -5 16 -5 3 -10 -1 -10 -11 0 -13 -3 -14 -14 -5 -11 10 -17 7 -30
-11 -9 -12 -16 -17 -16 -11 0 7 -6 10 -14 7 -8 -3 -12 -13 -9 -24 3 -12 -2
-20 -14 -24 -10 -3 -19 -16 -20 -31 -1 -14 -3 -36 -4 -50 -1 -14 -4 -23 -7
-20 -3 2 -10 -5 -16 -17 -9 -18 -19 -22 -51 -20 -107 5 -138 1 -197 -26 -37
-18 -52 -20 -73 -12 -15 6 -37 8 -48 4 -17 -5 -19 -12 -14 -55 3 -27 3 -49 0
-49 -4 0 -18 10 -31 23 l-25 22 17 -33 c10 -18 34 -43 54 -55 26 -15 32 -23
20 -25 -33 -6 -97 39 -111 80 -9 25 50 106 109 150 68 53 145 92 269 139 130
48 209 88 255 127 l35 30 3 -36 c2 -21 1 -56 -3 -79z m-775 73 c0 -2 -7 -7
-16 -10 -8 -3 -12 -2 -9 4 6 10 25 14 25 6z m608 -11 c-11 -11 -135 -41 -149
-36 -8 3 18 13 56 22 76 18 101 22 93 14z m880 -152 c23 -49 44 -101 47 -118
3 -16 -16 13 -41 65 -57 117 -66 140 -55 140 4 0 26 -39 49 -87z m-1528 68 c0
-6 -20 -52 -45 -103 -25 -51 -45 -104 -45 -117 0 -13 -12 -38 -27 -56 -16 -18
-59 -76 -98 -128 -38 -53 -73 -93 -77 -91 -4 3 -8 1 -8 -5 0 -5 -11 -23 -25
-38 -39 -44 -48 -54 -82 -98 -106 -131 -126 -152 -131 -137 -5 16 67 144 168
297 47 72 121 193 165 269 91 158 139 216 178 216 15 0 27 -4 27 -9z m70 -252
c0 -14 12 -50 28 -80 21 -42 37 -59 72 -76 63 -32 139 -31 178 2 25 21 31 23
36 9 11 -29 6 -120 -10 -173 -20 -69 -27 -62 -8 9 16 61 19 139 5 125 -5 -6
-14 -28 -21 -50 -17 -55 -53 -116 -121 -206 -48 -62 -66 -78 -99 -88 -23 -7
-44 -10 -47 -8 -2 3 10 8 27 12 17 4 34 13 37 21 3 8 10 14 17 14 14 0 38 37
28 44 -4 2 -65 -24 -135 -59 -87 -42 -130 -59 -133 -50 -7 18 23 102 67 182
21 40 39 77 39 83 0 6 -21 -2 -47 -17 -26 -15 -43 -21 -39 -14 12 19 -25 6
-104 -36 -43 -23 -92 -63 -144 -116 -159 -165 -297 -322 -336 -380 -48 -71
-52 -60 -9 26 40 78 105 171 189 267 97 110 266 316 335 406 33 44 87 107 119
142 62 64 76 67 76 11z m357 -36 c-3 -10 -5 -2 -5 17 0 19 2 27 5 18 2 -10 2
-26 0 -35z m60 -9 c-3 -3 -12 -4 -19 -1 -8 3 -5 6 6 6 11 1 17 -2 13 -5z
m1052 -94 c1 -39 -13 -71 -21 -48 -2 7 -2 38 0 68 3 40 7 50 13 35 4 -11 8
-36 8 -55z m-12 -278 c-6 -108 -29 -240 -47 -271 -13 -22 -12 -14 4 66 8 37
17 106 20 153 8 106 16 160 23 160 4 0 3 -48 0 -108z m-77 -48 c-7 -46 -14
-84 -15 -84 -7 0 3 145 11 175 14 54 17 -1 4 -91z m-1523 49 c-8 -15 -20 -47
-26 -70 -7 -24 -39 -77 -76 -125 -80 -101 -332 -368 -439 -463 -43 -38 -105
-94 -137 -124 -33 -30 -59 -51 -59 -47 0 13 53 112 116 217 35 59 64 109 64
111 0 2 42 47 93 99 50 52 143 149 205 216 73 79 139 140 188 173 42 28 79 49
81 46 2 -2 -2 -17 -10 -33z m409 0 c-8 -15 -15 -25 -16 -21 0 12 23 58 27 54
3 -2 -2 -17 -11 -33z m-562 -7 c-10 -8 -21 -12 -24 -10 -5 6 21 24 34 24 6 0
1 -6 -10 -14z m1010 -36 c-17 -17 -156 -60 -151 -47 2 7 37 22 78 34 88 26 85
25 73 13z m-474 -45 c0 -40 -86 -109 -207 -165 -59 -27 -85 -48 -144 -113 -40
-44 -96 -95 -123 -113 -28 -18 -61 -43 -72 -56 -12 -13 -43 -38 -69 -57 -35
-25 -43 -28 -34 -13 7 11 17 18 21 16 4 -3 8 -1 8 5 0 30 -30 11 -132 -87 -62
-60 -156 -146 -208 -191 -52 -46 -104 -93 -115 -106 -11 -12 -30 -27 -41 -33
-12 -6 -33 -36 -48 -67 -15 -30 -34 -55 -42 -55 -17 0 -17 5 -5 47 7 26 6 35
-5 41 -19 11 63 102 183 203 324 272 528 466 622 592 42 56 45 57 92 57 39 0
47 -3 43 -15 -17 -42 99 1 205 76 50 36 71 46 71 34z m100 -29 c0 -2 -21 -11
-47 -20 l-48 -16 24 20 c20 17 71 28 71 16z m-84 -111 c-3 -9 -17 -20 -31 -25
-44 -17 -124 -73 -118 -83 3 -6 1 -7 -6 -3 -13 8 -76 -40 -76 -58 0 -7 30 -13
75 -17 l75 -5 -81 -2 c-68 -2 -84 -5 -100 -23 -10 -12 -47 -44 -81 -71 -35
-27 -63 -55 -63 -61 0 -7 -24 -28 -53 -47 -28 -19 -72 -53 -97 -76 -63 -58
-172 -144 -182 -144 -4 0 -8 9 -8 20 0 13 36 48 110 106 61 48 110 90 110 94
0 4 37 36 83 71 45 35 125 104 177 154 95 91 262 211 268 194 2 -6 1 -16 -2
-24z m-72 -214 c10 -16 -171 -178 -351 -314 -96 -72 -203 -153 -236 -179 -70
-53 -77 -56 -77 -29 0 13 36 47 103 100 235 184 407 320 472 374 71 59 80 63
89 48z m-731 -409 c-3 -12 -26 -37 -52 -55 -25 -19 -76 -62 -113 -96 -69 -63
-82 -70 -91 -47 -7 17 35 57 144 134 47 33 92 68 99 77 16 20 21 15 13 -13z
m-260 -205 c5 -14 -114 -147 -132 -147 -17 0 15 52 67 111 46 51 57 57 65 36z
m102 -285 c-37 -64 -94 -169 -127 -232 -32 -63 -65 -121 -73 -130 -7 -8 -19
-28 -25 -44 -6 -16 -13 -26 -16 -23 -3 3 -1 14 5 25 6 12 11 29 11 39 0 10
-36 -42 -79 -114 -76 -126 -149 -228 -158 -219 -2 2 86 186 197 409 172 348
204 406 225 411 14 4 35 16 46 27 l20 20 21 -26 20 -25 -67 -118z m1001 70
c15 -23 -5 -86 -36 -116 -19 -19 -18 -16 4 24 14 25 26 53 26 62 0 15 -5 15
-59 -3 -60 -21 -158 -23 -154 -4 1 5 41 17 89 27 47 9 89 19 92 22 11 11 27 6
38 -12z m68 -284 c31 -40 103 -140 162 -223 124 -176 146 -201 191 -216 36
-11 45 -29 14 -29 -67 0 -91 26 -340 359 -92 123 -119 166 -109 172 21 14 23
12 82 -63z m-1144 -8 c-6 -11 -13 -20 -16 -20 -2 0 0 9 6 20 6 11 13 20 16 20
2 0 0 -9 -6 -20z m-40 -70 c-6 -11 -13 -20 -16 -20 -2 0 0 9 6 20 6 11 13 20
16 20 2 0 0 -9 -6 -20z m-7 -163 c-41 -53 -72 -87 -78 -87 -4 0 15 25 40 55
47 54 74 77 38 32z m1962 -257 c-19 -19 -31 -26 -34 -19 -2 7 6 21 19 31 36
29 46 21 15 -12z m302 -10 c35 -12 -91 -3 -152 11 -29 6 -18 7 42 3 44 -3 94
-9 110 -14z m-529 3 c-16 -2 -40 -2 -55 0 -16 2 -3 4 27 4 30 0 43 -2 28 -4z
m-371 -35 c-3 -7 -5 -2 -5 12 0 14 2 19 5 13 2 -7 2 -19 0 -25z"/>
<path d="M3352 3910 c-18 -21 -29 -41 -24 -44 8 -5 42 27 42 40 0 3 10 14 23
25 15 13 17 18 7 18 -8 0 -30 -18 -48 -39z"/>
</g>
</svg>
